<svg width="52" height="52" viewBox="0 0 52 52" fill="none" xmlns="http://www.w3.org/2000/svg">
<path d="M25.8333 19.4267C24.5662 19.4267 23.3276 19.8024 22.274 20.5064C21.2204 21.2104 20.3992 22.2109 19.9143 23.3816C19.4294 24.5523 19.3026 25.8404 19.5498 27.0832C19.797 28.326 20.4071 29.4675 21.3031 30.3635C22.1991 31.2595 23.3407 31.8697 24.5835 32.1169C25.8262 32.3641 27.1144 32.2372 28.2851 31.7523C29.4557 31.2674 30.4563 30.4463 31.1603 29.3927C31.8643 28.3391 32.24 27.1005 32.24 25.8333C32.24 24.992 32.0743 24.1589 31.7523 23.3816C31.4304 22.6043 30.9584 21.898 30.3635 21.3031C29.7686 20.7082 29.0623 20.2363 28.2851 19.9143C27.5078 19.5924 26.6747 19.4267 25.8333 19.4267ZM51.4858 13.0975C51.4722 11.1025 51.1049 9.12581 50.4008 7.25917C49.8823 5.89325 49.08 4.65283 48.0469 3.61973C47.0138 2.58663 45.7734 1.78435 44.4075 1.26583C42.5409 0.561781 40.5641 0.194424 38.5692 0.180833C35.2367 -1.73226e-07 34.255 0 25.8333 0C17.4117 0 16.43 -1.73226e-07 13.0975 0.180833C11.1025 0.194424 9.12581 0.561781 7.25917 1.26583C5.89325 1.78435 4.65283 2.58663 3.61973 3.61973C2.58663 4.65283 1.78435 5.89325 1.26583 7.25917C0.561781 9.12581 0.194424 11.1025 0.180833 13.0975C-1.73226e-07 16.43 0 17.4117 0 25.8333C0 34.255 -1.73226e-07 35.2367 0.180833 38.5692C0.20864 40.5711 0.5755 42.5539 1.26583 44.4333C1.78206 45.793 2.58367 47.0262 3.61667 48.05C4.64533 49.0893 5.88842 49.8916 7.25917 50.4008C9.12581 51.1049 11.1025 51.4722 13.0975 51.4858C16.43 51.6667 17.4117 51.6667 25.8333 51.6667C34.255 51.6667 35.2367 51.6667 38.5692 51.4858C40.5641 51.4722 42.5409 51.1049 44.4075 50.4008C45.7782 49.8916 47.0213 49.0893 48.05 48.05C49.083 47.0262 49.8846 45.793 50.4008 44.4333C51.1042 42.5575 51.4715 40.5725 51.4858 38.5692C51.6667 35.2367 51.6667 34.255 51.6667 25.8333C51.6667 17.4117 51.6667 16.43 51.4858 13.0975ZM44.9242 33.7642C44.8413 35.3583 44.501 36.9286 43.9167 38.4142C43.4152 39.6534 42.6696 40.779 41.7243 41.7243C40.779 42.6696 39.6534 43.4152 38.4142 43.9167C36.9146 44.4684 35.3355 44.7738 33.7383 44.8208C31.6975 44.8208 31.155 44.8208 25.8333 44.8208C20.5117 44.8208 19.9692 44.8208 17.9283 44.8208C16.3311 44.7738 14.7521 44.4684 13.2525 43.9167C11.9714 43.4406 10.8145 42.6811 9.86833 41.695C8.93231 40.7682 8.20943 39.6487 7.75 38.4142C7.19602 36.9161 6.89907 35.3353 6.87167 33.7383C6.87167 31.6975 6.87167 31.155 6.87167 25.8333C6.87167 20.5117 6.87167 19.9692 6.87167 17.9283C6.89907 16.3314 7.19602 14.7505 7.75 13.2525C8.22606 11.9714 8.98554 10.8145 9.97167 9.86833C10.9025 8.93736 12.0209 8.21524 13.2525 7.75C14.7521 7.19821 16.3311 6.89288 17.9283 6.84583C19.9692 6.84583 20.5117 6.84583 25.8333 6.84583C31.155 6.84583 31.6975 6.84583 33.7383 6.84583C35.3355 6.89288 36.9146 7.19821 38.4142 7.75C39.6952 8.22606 40.8521 8.98554 41.7983 9.97167C42.7344 10.8984 43.4572 12.018 43.9167 13.2525C44.4684 14.7521 44.7738 16.3311 44.8208 17.9283C44.8208 19.9692 44.8208 20.5117 44.8208 25.8333C44.8208 31.155 45.0017 31.6975 44.9242 33.7383V33.7642ZM40.7908 14.5442C40.4833 13.7097 39.9983 12.9519 39.3694 12.3231C38.7406 11.6942 37.9828 11.2092 37.1483 10.9017C36.0026 10.5045 34.7958 10.3121 33.5833 10.3333C31.5683 10.3333 31 10.3333 25.8333 10.3333C20.6667 10.3333 20.0983 10.3333 18.0833 10.3333C16.8647 10.3452 15.6578 10.5726 14.5183 11.005C13.6966 11.2986 12.9469 11.7638 12.3188 12.3695C11.6908 12.9753 11.1989 13.7078 10.8758 14.5183C10.5007 15.6689 10.3174 16.8733 10.3333 18.0833C10.3333 20.0983 10.3333 20.6667 10.3333 25.8333C10.3333 31 10.3333 31.5683 10.3333 33.5833C10.3589 34.8006 10.5859 36.0052 11.005 37.1483C11.3126 37.9828 11.7975 38.7406 12.4264 39.3694C13.0552 39.9983 13.813 40.4833 14.6475 40.7908C15.7497 41.1962 16.9096 41.4229 18.0833 41.4625C20.0983 41.4625 20.6667 41.4625 25.8333 41.4625C31 41.4625 31.5683 41.4625 33.5833 41.4625C34.802 41.4506 36.0089 41.2232 37.1483 40.7908C37.9828 40.4833 38.7406 39.9983 39.3694 39.3694C39.9983 38.7406 40.4833 37.9828 40.7908 37.1483C41.2232 36.0089 41.4506 34.802 41.4625 33.5833C41.4625 31.5683 41.4625 31 41.4625 25.8333C41.4625 20.6667 41.4625 20.0983 41.4625 18.0833C41.4632 16.8635 41.2354 15.6543 40.7908 14.5183V14.5442ZM25.8333 35.7017C24.5386 35.7017 23.2566 35.4462 22.0608 34.95C20.865 34.4537 19.7788 33.7264 18.8645 32.8097C17.9502 31.893 17.2257 30.805 16.7326 29.6078C16.2395 28.4107 15.9874 27.128 15.9908 25.8333C15.9908 23.8805 16.5703 21.9715 17.6558 20.3481C18.7413 18.7247 20.284 17.4599 22.0887 16.7137C23.8934 15.9676 25.8789 15.7737 27.7939 16.1565C29.7089 16.5394 31.4672 17.4819 32.8463 18.8646C34.2253 20.2472 35.1632 22.008 35.541 23.924C35.9189 25.84 35.7198 27.825 34.9689 29.6277C34.218 31.4305 32.9491 32.9699 31.3229 34.0511C29.6967 35.1324 27.7862 35.7068 25.8333 35.7017ZM36.1667 17.9025C35.5956 17.8421 35.0671 17.5724 34.683 17.1455C34.2989 16.7186 34.0864 16.1647 34.0864 15.5904C34.0864 15.0162 34.2989 14.4622 34.683 14.0353C35.0671 13.6084 35.5956 13.3388 36.1667 13.2783C36.7377 13.3388 37.2662 13.6084 37.6503 14.0353C38.0344 14.4622 38.2469 15.0162 38.2469 15.5904C38.2469 16.1647 38.0344 16.7186 37.6503 17.1455C37.2662 17.5724 36.7377 17.8421 36.1667 17.9025Z" fill="#191B29"/>
</svg>
