<svg width="54" height="44" viewBox="0 0 54 44" fill="none" xmlns="http://www.w3.org/2000/svg">
<path d="M53.4998 5.30023C51.4954 6.16982 49.3756 6.74467 47.2065 7.0069C49.495 5.63976 51.2099 3.48899 52.0332 0.953567C49.8826 2.23374 47.5285 3.13569 45.0732 3.62023C43.432 1.84043 41.2464 0.65569 38.8593 0.251837C36.4722 -0.152016 34.0186 0.247856 31.8833 1.38874C29.7479 2.52962 28.0517 4.34698 27.0605 6.5558C26.0693 8.76461 25.8393 11.2399 26.4065 13.5936C22.0583 13.3736 17.805 12.2414 13.9229 10.2705C10.0408 8.29962 6.61676 5.53408 3.87317 2.15357C2.91087 3.83402 2.40522 5.73709 2.4065 7.67357C2.40309 9.47192 2.84442 11.2432 3.69118 12.8297C4.53795 14.4163 5.76389 15.7688 7.25984 16.7669C5.52111 16.7196 3.81953 16.253 2.29984 15.4069V15.5402C2.31287 18.0599 3.19582 20.4978 4.79934 22.4415C6.40286 24.3851 8.62852 25.7153 11.0998 26.2069C10.1485 26.4964 9.16084 26.6491 8.1665 26.6602C7.47821 26.6522 6.79163 26.5898 6.11317 26.4736C6.81693 28.6411 8.17883 30.5353 10.0094 31.8927C11.8399 33.25 14.048 34.003 16.3265 34.0469C12.479 37.0743 7.72886 38.7265 2.83317 38.7402C1.9418 38.7432 1.05113 38.6897 0.166504 38.5802C5.16498 41.8076 10.99 43.5208 16.9398 43.5136C21.0457 43.5562 25.1189 42.7803 28.9215 41.2311C32.7241 39.6819 36.1799 37.3906 39.087 34.4909C41.9942 31.5912 44.2944 28.1413 45.8533 24.3426C47.4122 20.544 48.1986 16.4728 48.1665 12.3669C48.1665 11.9136 48.1665 11.4336 48.1665 10.9536C50.259 9.39306 52.0638 7.48003 53.4998 5.30023Z" fill="#191B29"/>
</svg>
