<svg width="52" height="52" viewBox="0 0 52 52" fill="none" xmlns="http://www.w3.org/2000/svg">
<path d="M51.7498 12.4816C51.7213 11.385 51.6364 10.2907 51.4957 9.20283C51.3059 8.25002 50.9896 7.32684 50.5553 6.45783C50.101 5.51513 49.4909 4.65585 48.7507 3.91616C48.0037 3.18468 47.1459 2.57566 46.209 2.11158C45.3388 1.6857 44.4157 1.37798 43.464 1.19658C42.3865 1.03518 41.2999 0.941799 40.2107 0.916992H12.4811C11.3845 0.945551 10.2902 1.03038 9.20234 1.17116C8.24953 1.36094 7.32636 1.67721 6.45734 2.11158C5.51465 2.56586 4.65536 3.17596 3.91567 3.91616C3.18419 4.66318 2.57517 5.52095 2.11109 6.45783C1.68522 7.328 1.37749 8.25116 1.19609 9.20283C1.03469 10.2803 0.941311 11.3669 0.916504 12.4562C0.916504 12.9391 0.916504 13.6253 0.916504 13.8287V38.8387C0.916504 39.1182 0.916504 39.7282 0.916504 40.1857C0.945063 41.2823 1.0299 42.3766 1.17067 43.4645C1.36045 44.4173 1.67672 45.3405 2.11109 46.2095C2.56538 47.1522 3.17547 48.0115 3.91567 48.7512C4.66269 49.4826 5.52046 50.0917 6.45734 50.5557C7.32751 50.9816 8.25068 51.2893 9.20234 51.4707C10.2798 51.6321 11.3664 51.7255 12.4557 51.7503H40.1853C41.2818 51.7218 42.3762 51.6369 43.464 51.4962C44.4168 51.3064 45.34 50.9901 46.209 50.5557C47.1517 50.1015 48.011 49.4914 48.7507 48.7512C49.4822 48.0041 50.0912 47.1464 50.5553 46.2095C50.9811 45.3393 51.2888 44.4162 51.4703 43.4645C51.6317 42.387 51.725 41.3004 51.7498 40.2112C51.7498 39.7282 51.7498 39.1182 51.7498 38.8387V13.8287C51.7498 13.6253 51.7498 12.9391 51.7498 12.4816ZM26.9178 44.1253C23.8654 44.1103 20.8664 43.3234 18.1998 41.8378L8.5415 44.3795L11.0832 34.9245C9.44408 32.1705 8.56688 29.0301 8.5415 25.8253C8.55162 22.2236 9.62731 18.7054 11.6331 15.7138C13.6389 12.7223 16.485 10.3911 19.8131 9.01402C23.1412 7.63691 26.8024 7.27541 30.3355 7.97504C33.8686 8.67468 37.1157 10.4042 39.6679 12.9457C42.22 15.4872 43.9629 18.7271 44.6773 22.2573C45.3916 25.7875 45.0453 29.4501 43.6821 32.7839C42.3188 36.1177 39.9995 38.9735 37.0163 40.9917C34.0331 43.0099 30.5194 44.1002 26.9178 44.1253ZM26.9178 10.7532C24.2231 10.7841 21.5847 11.5284 19.2713 12.9105C16.9578 14.2925 15.0519 16.2629 13.7476 18.621C12.4433 20.9792 11.7871 23.6408 11.8459 26.335C11.9047 29.0292 12.6764 31.6597 14.0823 33.9587L14.4382 34.5432L12.9132 40.1095L18.7082 38.5337L19.2673 38.8641C21.5792 40.2258 24.2093 40.9535 26.8923 40.9737C30.9369 40.9737 34.8158 39.367 37.6757 36.507C40.5356 33.6471 42.1423 29.7682 42.1423 25.7237C42.1423 21.6791 40.5356 17.8002 37.6757 14.9403C34.8158 12.0804 30.9369 10.4737 26.8923 10.4737L26.9178 10.7532ZM35.8136 32.4082C35.4807 32.9635 35.0349 33.4427 34.5052 33.8149C33.9754 34.187 33.3734 34.4438 32.7382 34.5687C31.789 34.7422 30.8117 34.6811 29.8915 34.3907C29.0257 34.1201 28.1769 33.7975 27.3498 33.4249C24.2077 31.8482 21.528 29.4838 19.5723 26.5624C18.5096 25.2089 17.8648 23.5748 17.7169 21.8603C17.7018 21.1481 17.8365 20.4407 18.1124 19.7839C18.3882 19.1271 18.799 18.5356 19.3182 18.0478C19.4711 17.8745 19.6587 17.7351 19.8688 17.6388C20.079 17.5425 20.307 17.4913 20.5382 17.4887H21.2498C21.5294 17.4887 21.9107 17.4887 22.2665 18.2766C22.6223 19.0645 23.5628 21.4282 23.6898 21.657C23.7523 21.7789 23.7849 21.914 23.7849 22.051C23.7849 22.1879 23.7523 22.323 23.6898 22.4449C23.5775 22.7211 23.4232 22.9783 23.2323 23.2074C23.0036 23.487 22.7494 23.8174 22.5461 24.0207C22.3428 24.2241 22.0886 24.4782 22.3428 24.9357C23.0343 26.1028 23.8903 27.1643 24.8844 28.0874C25.967 29.044 27.2047 29.809 28.5444 30.3495C29.0019 30.5782 29.2815 30.5528 29.5357 30.3495C29.7898 30.1462 30.6794 29.0278 30.9844 28.5703C31.2894 28.1128 31.5944 28.1891 32.0011 28.3416C32.4078 28.4941 34.6698 29.587 35.1273 29.8157C35.5848 30.0445 35.8644 30.1462 35.9915 30.3495C36.1017 31.0147 36.0405 31.697 35.8136 32.332V32.4082Z" fill="#191B29"/>
</svg>
